<svg id="a354c491-2801-4ffc-8274-ca430667a4b5" data-name="Camada 1" xmlns="http://www.w3.org/2000/svg" viewBox="0 0 48.37 91.03"><defs><style>.b50f0166-a7cd-49c0-8c85-1f41ad468f3a{fill:#c7a36c;}.a4da8ede-4788-4f67-b0d4-fc9313d79838,.afbc11d1-1312-4d58-ba04-7eede8cbd228,.b1166505-4a70-415f-80b5-dfde8a94a75f,.b50f0166-a7cd-49c0-8c85-1f41ad468f3a,.bf7c991e-9702-426d-8f6f-56cd451e6b34,.ec0aa2d8-c2f0-4813-af5e-3e7ec71d239d,.f40168c4-fc1b-44bf-82ed-3249f591b21e{fill-rule:evenodd;}.bf7c991e-9702-426d-8f6f-56cd451e6b34{fill:#fffbed;}.a4da8ede-4788-4f67-b0d4-fc9313d79838{fill:#f78f2d;}.afbc11d1-1312-4d58-ba04-7eede8cbd228{fill:#fdbb41;}.ec0aa2d8-c2f0-4813-af5e-3e7ec71d239d{fill:#2f2c3d;}.f40168c4-fc1b-44bf-82ed-3249f591b21e{fill:#f78f2e;}.b1166505-4a70-415f-80b5-dfde8a94a75f{fill:#fff;}</style></defs><title>form-icon</title><path class="b50f0166-a7cd-49c0-8c85-1f41ad468f3a" d="M72.84,29.16c-1-.32-12.69-3.69-22.81-3.69s-21.79,3.37-22.82,3.69c-.25-7.76.13-14.74,1.64-18.94A55.54,55.54,0,0,1,50,5.83a55.54,55.54,0,0,1,21.18,4.39c1.47,4.17,1.85,11.15,1.63,18.94" transform="translate(-25.81 -4.49)"/><path class="bf7c991e-9702-426d-8f6f-56cd451e6b34" d="M64.73,27.17c-2.59-.51-5.57-1-8.62-1.34-4.51-.9-9.45.32-14.7.32a84.41,84.41,0,0,0-14.23,1.6c0-6.25.42-14,1.67-17.53A55.54,55.54,0,0,1,50,5.83a52.63,52.63,0,0,1,10,1A31.57,31.57,0,0,1,63,8c1.51,4.26,2,11.28,1.73,19.16" transform="translate(-25.81 -4.49)"/><path class="a4da8ede-4788-4f67-b0d4-fc9313d79838" d="M33.11,76c.64,6,.9,11.6,1,15a3.46,3.46,0,0,0,3.55,3.24H62.36a3.46,3.46,0,0,0,3.56-3.24c.13-3.49.42-9.45,1.12-15.67h0c.61-5.32,5.64-40.88,5.83-46.13v0c-1-.32-12.69-3.68-22.81-3.68s-21.79,3.36-22.81,3.68v0c.12,5.28,5.25,41.49,5.86,46.84" transform="translate(-25.81 -4.49)"/><path class="afbc11d1-1312-4d58-ba04-7eede8cbd228" d="M33.11,76c.64,6,.9,11.6,1,15a3.29,3.29,0,0,0,1.15,2.37H54.16a3.46,3.46,0,0,0,3.56-3.23c.12-3.5.41-9.46,1.12-15.67h0c.61-5.32,5.64-40.88,5.83-46.14v0a111.72,111.72,0,0,0-11-2.53c-3.27.32-9.74.7-16.47,1.06-5.26,1-9.32,2.14-9.9,2.3v0c.09,5.32,5.22,41.53,5.83,46.88" transform="translate(-25.81 -4.49)"/><path class="ec0aa2d8-c2f0-4813-af5e-3e7ec71d239d" d="M27.21,30.5a1.33,1.33,0,0,1-1.28-1,1.39,1.39,0,0,1,.9-1.7c.51-.16,12.53-3.71,23.2-3.71s22.68,3.59,23.19,3.71a1.36,1.36,0,1,1-.8,2.6c-.13,0-12.14-3.62-22.43-3.62S27.7,30.41,27.57,30.44a1.29,1.29,0,0,1-.36.06" transform="translate(-25.81 -4.49)"/><path class="ec0aa2d8-c2f0-4813-af5e-3e7ec71d239d" d="M62.36,95.51H37.69A4.78,4.78,0,0,1,32.79,91c-.13-3.27-.42-9.58-1.15-16.12l-.1-.71h0c-1.09-9.7-3.46-18.9-4.45-28.67s-2.5-27.4.48-35.73a1.43,1.43,0,0,1,.7-.77A56.4,56.4,0,0,1,50,4.49,56.9,56.9,0,0,1,71.78,9a1.45,1.45,0,0,1,.71.77c3,8.37,1.31,26.12.45,36-.84,9.49-3,19-4.43,28.52L65.82,74c1.48-9.52,3.56-18.87,4.42-28.52,1.45-15.89,1.77-28.25-.12-34.21A54.87,54.87,0,0,0,50,7.18a55.25,55.25,0,0,0-20.09,4c-1.86,5.92-1.92,18.23-.16,34,1,9.77,2.88,18.81,4.36,28.19h0a2.63,2.63,0,0,1,.06.48h0V74h0a4.62,4.62,0,0,1,.06.64h0c.71,6.28,1,12.3,1.19,16.34a2.07,2.07,0,0,0,2.18,1.92H62.3a2.08,2.08,0,0,0,2.18-1.92c.16-4.16.48-10.44,1.25-17l2.69.32c-.8,6.76-1.12,13.39-1.25,16.73a4.63,4.63,0,0,1-4.81,4.48" transform="translate(-25.81 -4.49)"/><path class="f40168c4-fc1b-44bf-82ed-3249f591b21e" d="M45.45,26.88c-1.61.2-3.21.45-4.68.71.45,7.3,1.09,14.13,1.54,19.22.19,2.28,4.51,2.63,4.29,0-.58-6.63-.93-13.61-1.15-19.93" transform="translate(-25.81 -4.49)"/><path class="f40168c4-fc1b-44bf-82ed-3249f591b21e" d="M37.85,28.2c-.93.19-1.79.38-2.59.57l1.21,18.07c.16,2.38,2.5,2.25,2.44,0-.13-5.31-.61-12.14-1.06-18.64" transform="translate(-25.81 -4.49)"/><path class="b1166505-4a70-415f-80b5-dfde8a94a75f" d="M45.61,46.24c-.93-10.51-1.25-21.79-1.45-30-1.69.38-3.33.8-4.87,1.25.36,10.73,1.38,21.46,2,28.74.23,2.24,4.55,2.62,4.3,0" transform="translate(-25.81 -4.49)"/><path class="b1166505-4a70-415f-80b5-dfde8a94a75f" d="M37.92,46.2c-.2-7.88-1.19-19.19-1.64-27.78l-2.59.93L35.48,46.2c.16,2.37,2.5,2.25,2.44,0" transform="translate(-25.81 -4.49)"/><path class="b1166505-4a70-415f-80b5-dfde8a94a75f" d="M44.52,27.72c-.16-4.17-.26-8.11-.32-11.51-1.67.36-3.3.8-4.81,1.25,0,.13,0,.26,0,.39.13,3.59.32,7.14.54,10.6,1.41-.25,3-.51,4.62-.73" transform="translate(-25.81 -4.49)"/></svg>