<svg id="logo" data-name="logo" xmlns="http://www.w3.org/2000/svg" viewBox="0 0 83.22 102.05"><defs><style>.cls-1{font-size:54.44px;fill:#ef5a07;font-family:BrushScriptMT, Brush Script MT;}.cls-2{font-size:9.4px;fill:#003147;font-family:OpenSans, Open Sans;}</style></defs><title>rate-my-beer-logo</title><text class="cls-1" transform="translate(3.7 66.02) rotate(-4.78)">Beer</text><text class="cls-2" transform="matrix(0.95, -0.3, 0.3, 0.95, 28.59, 19.7)">R</text><text class="cls-2" transform="translate(34.72 17.81) rotate(-6.72)">A</text><text class="cls-2" transform="matrix(1, 0.07, -0.07, 1, 41.23, 17.14)">T</text><text class="cls-2" transform="translate(47.04 17.57) rotate(13.62)">E</text><text class="cls-2" transform="translate(52.73 19.09) rotate(21.19)"> </text><text class="cls-2" transform="matrix(0.85, 0.52, -0.52, 0.85, 55.67, 20)">M</text><text class="cls-2" transform="matrix(0.72, 0.69, -0.69, 0.72, 63.25, 24.89)">Y</text><text class="cls-2" transform="translate(58.52 76.37) rotate(151.72)">R</text><text class="cls-2" transform="translate(52.83 79.35) rotate(164.13)">A</text><text class="cls-2" transform="translate(46.53 81.04) rotate(175.67)">T</text><text class="cls-2" transform="translate(40.75 81.42) rotate(-173.47)">E</text><text class="cls-2" transform="translate(34.94 80.61) rotate(-165.16)"> </text><text class="cls-2" transform="matrix(-0.9, -0.44, 0.44, -0.9, 31.93, 80.05)">M</text><text class="cls-2" transform="translate(23.97 75.88) rotate(-140.18)">Y</text></svg>