<svg id="logo" xmlns="http://www.w3.org/2000/svg" viewBox="0 0 78.28 77.68"><defs><style>.cls-1{isolation:isolate;}.cls-2{fill:#ef5a07;}.cls-3{fill:#003147;}</style></defs><title>rate-my-beer-logo</title><g class="cls-1"><path class="cls-2" d="M17.12,46.87l-1.22,1.7a41.35,41.35,0,0,1,4.26.22c1.25.13,2.42.3,3.5.5A29,29,0,0,1,26.5,50q4.34,1.4,4.59,4.52a5.43,5.43,0,0,1-1.43,3.88A17,17,0,0,1,25.39,62a30.1,30.1,0,0,1-5.56,2.72A20.64,20.64,0,0,1,14.53,66a11.3,11.3,0,0,1-6.41-1,4.69,4.69,0,0,1-2.59-3.9,9,9,0,0,1,1-4.35,50.16,50.16,0,0,1,3.76-6.43A7.11,7.11,0,0,1,7.18,50a1.68,1.68,0,0,1-1-1.45,1.18,1.18,0,0,1,.26-1A2,2,0,0,1,7.31,47a22,22,0,0,1,2.21-.55l4.21-.88a34,34,0,0,1,4.73-5.78,9.53,9.53,0,0,1,4.74-2.46,3.2,3.2,0,0,1,.46-.06c.17,0,.26,0,.27.11a2.62,2.62,0,0,1-.53.89c-.36.5-.94,1.28-1.75,2.36l-2.86,3.85a64.47,64.47,0,0,0,8-2.21,14.84,14.84,0,0,0,4.61-2.45A3.36,3.36,0,0,0,32.81,37a2.68,2.68,0,0,0-1.94-2.42,13.32,13.32,0,0,0-5.34-.35,27.77,27.77,0,0,0-4.45.77c-1.67.4-3.17.83-4.51,1.28S14,37.23,13,37.7s-1.54.79-1.53,1,.06.1.17.14c.89.25,1.35.48,1.37.69s-1.26.94-3.84,2a22.66,22.66,0,0,1-5.25,1.65.86.86,0,0,1-1.06-.89c-.07-.78.53-2.24,1.78-4.38a11.86,11.86,0,0,1,3.55-4.21A25.93,25.93,0,0,1,11,32.47q2.18-.82,4.79-1.63t5.33-1.43a33.45,33.45,0,0,1,4.84-.8q5-.42,7.67,1.15A5.37,5.37,0,0,1,36.48,34a6.24,6.24,0,0,1-.86,3.62,11.6,11.6,0,0,1-3.32,3.51,26.2,26.2,0,0,1-6.12,3.18A57.41,57.41,0,0,1,17.12,46.87Zm-2.53,3.65c-.82,1.17-1.56,2.21-2.2,3.1A16,16,0,0,0,11,55.79a3,3,0,0,0-.33,1.62,2.84,2.84,0,0,0,1.5,2.15,6.17,6.17,0,0,0,3.86.68A16.53,16.53,0,0,0,20.84,59,14.89,14.89,0,0,0,25,56.56a3.53,3.53,0,0,0,1.54-2.77A2.19,2.19,0,0,0,25.1,52,14.53,14.53,0,0,0,21,51Q18.34,50.68,14.59,50.52Z" transform="translate(-2.85 -10.44)"/><path class="cls-2" d="M37.68,55.74l0,.66a3.6,3.6,0,0,0,1,2.37,2.58,2.58,0,0,0,2.09.71,6.55,6.55,0,0,0,2.64-.84,15,15,0,0,0,2.63-1.84q1.29-1.12,3.14-3l.13,1.62a32.89,32.89,0,0,1-5.15,6A9,9,0,0,1,39,63.79a4.46,4.46,0,0,1-3.89-1.52,8.18,8.18,0,0,1-1.8-4.89,10.09,10.09,0,0,1,.88-5.16,19.25,19.25,0,0,1,3.84-5.13,16.31,16.31,0,0,1,3.78-2.93A9.15,9.15,0,0,1,45.31,43a3.12,3.12,0,0,1,2,.4A2,2,0,0,1,48.2,45a5.54,5.54,0,0,1-1,3.43,14.36,14.36,0,0,1-3.52,3.6A40,40,0,0,1,37.68,55.74ZM37.8,54a15.27,15.27,0,0,0,3.89-2.64A11.91,11.91,0,0,0,44,48.5a4.13,4.13,0,0,0,.65-1.91c0-.4-.23-.59-.61-.56a3.84,3.84,0,0,0-1.49.74,13,13,0,0,0-2,1.77A11.9,11.9,0,0,0,38.7,51,7.48,7.48,0,0,0,37.8,54Z" transform="translate(-2.85 -10.44)"/><path class="cls-2" d="M53.52,54.41l0,.66a3.6,3.6,0,0,0,1,2.38,2.57,2.57,0,0,0,2.09.7,6.69,6.69,0,0,0,2.64-.83,15,15,0,0,0,2.63-1.85q1.29-1.12,3.14-3l.14,1.61a33.4,33.4,0,0,1-5.16,6,9,9,0,0,1-5.16,2.36A4.46,4.46,0,0,1,51,61a8.19,8.19,0,0,1-1.8-4.9,10,10,0,0,1,.88-5.15,19.25,19.25,0,0,1,3.84-5.13,16.37,16.37,0,0,1,3.78-2.94,9.15,9.15,0,0,1,3.48-1.17,3.12,3.12,0,0,1,2,.41A2,2,0,0,1,64,43.72a5.51,5.51,0,0,1-1,3.42,14.22,14.22,0,0,1-3.52,3.61A39.21,39.21,0,0,1,53.52,54.41Zm.12-1.74A15,15,0,0,0,57.53,50a11.88,11.88,0,0,0,2.28-2.84,4,4,0,0,0,.65-1.91c0-.41-.23-.6-.6-.56a3.74,3.74,0,0,0-1.5.73,13,13,0,0,0-2,1.78,11.57,11.57,0,0,0-1.78,2.46A7.52,7.52,0,0,0,53.64,52.67Z" transform="translate(-2.85 -10.44)"/><path class="cls-2" d="M65,54.55l-.15-1.72a25.93,25.93,0,0,0,1.93-3.07,3,3,0,0,1-1.29-.61A1.87,1.87,0,0,1,65,47.91a5.54,5.54,0,0,1,.59-2.48,13.88,13.88,0,0,1,1.74-2.89,6.08,6.08,0,0,1,2-1.82,1.56,1.56,0,0,1,.7-.25.46.46,0,0,1,.57.46,5,5,0,0,1-.67,1.9,63.37,63.37,0,0,1,6.82-1.43,1.9,1.9,0,0,1,.78.05,1.83,1.83,0,0,1,.83,1,5.59,5.59,0,0,1,.44,1.72,2.08,2.08,0,0,1-.39,1.25,22.54,22.54,0,0,1-1.53,2A16.28,16.28,0,0,0,74.73,51,6.49,6.49,0,0,0,74,53.74c.07.83.62,1.2,1.64,1.12S78.5,53.52,81,51.1l.15,1.78c-1.34,1.66-2.44,3-3.32,3.93a19.79,19.79,0,0,1-2.48,2.33,4.13,4.13,0,0,1-2.1,1,2.22,2.22,0,0,1-1.94-.87,5,5,0,0,1-1-2.89,7.1,7.1,0,0,1,.36-2.64,18.08,18.08,0,0,1,1.45-3.31,38.66,38.66,0,0,1,2.24-3.62l-1.64.48-1.93.52-1.56.42A19.41,19.41,0,0,1,65,54.55Z" transform="translate(-2.85 -10.44)"/></g><g class="cls-1"><path class="cls-3" d="M29.37,16.54l.84,2.65-.74.23-2-6.37,1.75-.55a2.89,2.89,0,0,1,1.88-.1,1.71,1.71,0,0,1,1,1.17,1.78,1.78,0,0,1-.74,2.12L34,18l-.88.27L30.7,16.12Zm-.2-.64,1-.32a1.84,1.84,0,0,0,1.06-.67,1.24,1.24,0,0,0,.07-1.06,1.1,1.1,0,0,0-.66-.79,2.14,2.14,0,0,0-1.29.1l-1,.3Z" transform="translate(-2.85 -10.44)"/></g><g class="cls-1"><path class="cls-3" d="M39.83,17.21l-1.08-2-2.68.31-.57,2.22-.78.09,1.85-7,.65-.08,3.41,6.38Zm-1.41-2.69-1-2c-.13-.25-.27-.55-.42-.92a8.58,8.58,0,0,1-.17,1l-.54,2.16Z" transform="translate(-2.85 -10.44)"/></g><g class="cls-1"><path class="cls-3" d="M44.22,17.35l-.78-.06.42-6-2.13-.15.05-.69,5,.35,0,.69-2.13-.15Z" transform="translate(-2.85 -10.44)"/></g><g class="cls-1"><path class="cls-3" d="M51.57,18.67l-3.63-.88,1.58-6.52,3.63.88-.16.67-2.88-.7-.51,2.1,2.71.66-.17.67-2.7-.66-.58,2.4,2.88.7Z" transform="translate(-2.85 -10.44)"/></g><g class="cls-1"><path class="cls-3" d="M59,22l1.16-6.24h0c-.21.42-.49.91-.82,1.46l-2.22,3.62-.62-.37,3.49-5.7,1,.61L59.87,21.2l0,0,4.7-3.59,1,.6L62.1,23.94l-.66-.41,2.25-3.67c.26-.43.55-.87.89-1.34l0,0-5,3.85Z" transform="translate(-2.85 -10.44)"/></g><g class="cls-1"><path class="cls-3" d="M67.46,24.29l3.6-1.18.61.58L67.22,25.1,65.43,27l-.57-.55,1.77-1.85,1.25-4.52.62.59Z" transform="translate(-2.85 -10.44)"/></g><g class="cls-1"><path class="cls-3" d="M58.34,79.63,57,77.18l.69-.37,3.18,5.91-1.62.87a2.92,2.92,0,0,1-1.83.45,1.72,1.72,0,0,1-1.2-1,1.77,1.77,0,0,1,.34-2.22l-3-1.79.82-.44,2.75,1.69Zm.32.59-.94.51a1.82,1.82,0,0,0-.91.86,1.21,1.21,0,0,0,.12,1,1.13,1.13,0,0,0,.8.66A2.07,2.07,0,0,0,59,83l.9-.48Z" transform="translate(-2.85 -10.44)"/></g><g class="cls-1"><path class="cls-3" d="M47.88,80.76l1.39,1.82,2.59-.74.21-2.27.76-.22-.71,7.21-.63.18L47.11,81Zm1.82,2.43L51,85a8.11,8.11,0,0,1,.56.84,8.79,8.79,0,0,1,0-1l.19-2.21Z" transform="translate(-2.85 -10.44)"/></g><g class="cls-1"><path class="cls-3" d="M43.55,81.27l.78-.06.45,6,2.12-.16.05.69-5,.38-.06-.69L44,87.27Z" transform="translate(-2.85 -10.44)"/></g><g class="cls-1"><path class="cls-3" d="M36.12,80.89l3.71.43L39.07,88l-3.72-.42.08-.69,2.94.34.25-2.15-2.76-.32.07-.68,2.77.31L39,81.92,36,81.58Z" transform="translate(-2.85 -10.44)"/></g><g class="cls-1"><path class="cls-3" d="M28.43,78.34l-.57,6.35,0,0c.17-.44.4-1,.68-1.54l1.88-3.84.65.31-3,6-1.06-.51.52-5.92,0,0-4.36,4-1-.51,2.95-6,.7.34L23.92,81c-.22.44-.48.92-.77,1.42l0,0,4.68-4.34Z" transform="translate(-2.85 -10.44)"/></g><g class="cls-1"><path class="cls-3" d="M19.8,76.77,16.28,78.2l-.65-.54L20,75.94l1.67-2,.6.51-1.64,2L19.67,81,19,80.49Z" transform="translate(-2.85 -10.44)"/></g></svg>