<svg id="e498881c-082f-4952-a366-efd5b0b22c10" data-name="Camada 1" xmlns="http://www.w3.org/2000/svg" viewBox="0 0 66.82 86.3"><defs><style>.ef5c23d0-aee7-4cc4-b725-44c91c19b533{fill:#2f2c3d;}.a99c811a-ada0-4a0e-a865-4a67b2950fad,.ee934a8f-f4f0-4b46-bfe3-7645904ae3c6,.ef5c23d0-aee7-4cc4-b725-44c91c19b533{fill-rule:evenodd;}.a99c811a-ada0-4a0e-a865-4a67b2950fad{fill:#49a550;}.ee934a8f-f4f0-4b46-bfe3-7645904ae3c6{fill:#79e083;}</style></defs><title>sign-in-icon</title><path class="ef5c23d0-aee7-4cc4-b725-44c91c19b533" d="M78.26,48.31c2.55,8.3,1.49,15.81-2.64,23.52l-.86,1.57H73a19.24,19.24,0,0,1-5.93-.92c-2.82,7.83-8.21,15.33-15.39,19.63l-1.69,1-1.69-1c-7.15-4.33-12.57-11.83-15.39-19.63A17.6,17.6,0,0,1,27,73.4H25.18l-.86-1.57c-4.15-7.71-5.19-15.22-2.64-23.52A22.81,22.81,0,0,1,19,47.6L17.17,47l-.24-1.89c-.95-7.51-.12-15.22,5-21.18a21.17,21.17,0,0,1,2.46-2.46,12.1,12.1,0,0,1-1.1-1.36l-1.54-2.29,2.13-1.75A24.26,24.26,0,0,1,44.9,10.74V6.85l5.1.06,5.1-.06v3.89a24.26,24.26,0,0,1,21.06,5.33l2.13,1.75-1.54,2.29a9.9,9.9,0,0,1-1.1,1.36,19.06,19.06,0,0,1,2.46,2.46c5.08,6,5.91,13.67,5,21.18L82.83,47,81,47.6a27.34,27.34,0,0,1-2.76.71" transform="translate(-16.59 -6.85)"/><path class="a99c811a-ada0-4a0e-a865-4a67b2950fad" d="M75.15,48.4c2.64,7.86,1.75,14.77-2.17,22-6.88,0-12-4.21-16.28-10.23a38.44,38.44,0,0,0,7.89-12.36,31.57,31.57,0,0,0,10.56.59M35.56,70.94c2.61,7.56,7.77,14.59,14.29,18.59l.15.09.15-.09c6.52-4,11.68-11,14.29-18.59a36.66,36.66,0,0,1-9.72-8.54c-1.61,1.72-3.21,3.41-4.69,5.13-1.51-1.72-3.11-3.41-4.69-5.13A36.8,36.8,0,0,1,35.56,70.94ZM24.82,48.4c-2.64,7.86-1.75,14.77,2.17,22,6.88,0,12-4.21,16.28-10.23a39.2,39.2,0,0,1-7.92-12.36A31.42,31.42,0,0,1,24.82,48.4ZM50,9.93l2.08,0v4.75C61,11.71,68.18,13.43,74.2,18.42a7.41,7.41,0,0,1-3.94,3C77.7,25.62,81.55,32.89,80,44.72a21.05,21.05,0,0,1-5.07,1,33.16,33.16,0,0,1-9.46-.92,33.18,33.18,0,0,0-.12-14.71C65.72,42.67,61,53,50.15,60.44v.21L50,60.56l-.15.09v-.21C39,53,34.28,42.67,34.61,30.07a32.31,32.31,0,0,0-.12,14.71A32.12,32.12,0,0,1,25,45.7a19.88,19.88,0,0,1-5.07-1c-1.51-11.83,2.34-19.13,9.78-23.31a7.45,7.45,0,0,1-3.94-3c6-5,13.23-6.71,22.15-3.77V9.9Z" transform="translate(-16.59 -6.85)"/><path class="ee934a8f-f4f0-4b46-bfe3-7645904ae3c6" d="M76.6,55.75a28.53,28.53,0,0,1-3.62,12c-6.31,0-11.12-3.55-15.21-8.77a37.56,37.56,0,0,0,6.82-11.12,30.81,30.81,0,0,0,10.56.56,27.89,27.89,0,0,1,1.45,7.35M36.36,70.43A35.12,35.12,0,0,0,49.82,86.86L50,87l.15-.09A35.12,35.12,0,0,0,63.58,70.43a36.62,36.62,0,0,1-8.89-8c-1.61,1.72-3.21,3.41-4.69,5.13-1.51-1.72-3.11-3.41-4.69-5.13A36.84,36.84,0,0,1,36.36,70.43Zm-13-14.68a28.53,28.53,0,0,0,3.62,12c6.31,0,11.12-3.55,15.21-8.77a37.56,37.56,0,0,1-6.82-11.12,30.79,30.79,0,0,1-10.56.56A29.16,29.16,0,0,0,23.34,55.75ZM50,9.93l2.08,0v4.75c8.24-2.73,15-1.45,20.73,2.67l1.42,1.1a6.87,6.87,0,0,1-3.94,3c6,3.41,9.72,8.87,10.08,17.14,0,1.13-.15,2.29-.3,3.5A21.05,21.05,0,0,1,75,43a33.21,33.21,0,0,1-9-.8,32.73,32.73,0,0,0,.27-5.52,37.81,37.81,0,0,0-.86-9.31C65.72,40,61,50.33,50.15,57.77V58L50,57.89l-.15.09v-.21C39,50.3,34.28,40,34.61,27.4a36.41,36.41,0,0,0-.86,9.31A29.86,29.86,0,0,0,34,42.23a32,32,0,0,1-9,.8,19.45,19.45,0,0,1-5.07-1c-.15-1.21-.24-2.37-.3-3.5.36-8.27,4-13.73,10.08-17.14a6.29,6.29,0,0,1-3.94-3l1.42-1.1C33,13.2,39.74,11.92,48,14.65V9.9Z" transform="translate(-16.59 -6.85)"/></svg>